# Exported from Wings 3D 1.5.3
mtllib bodenLow.mtl
o Quader001
#92 vertices, 62 faces
v 36.80540000 -1.02032927 71.06080000
v 36.80540000 -6.02032927 71.06080000
v 37.50000000 -6.02032927 71.06080000
v 37.50000000 -1.02032927 71.06080000
v 35.50000000 -1.02032927 71.53590000
v 35.50000000 -6.02032927 71.53590000
v 34.43580000 -1.02032927 72.42880000
v 34.43580000 -6.02032927 72.42880000
v 33.74120000 -1.02032927 73.63190000
v 33.74120000 -6.02032927 73.63190000
v 33.50000000 -6.02032927 75.00000000
v 33.50000000 -1.02032927 75.00000000
v -33.50000000 -1.02032927 75.00000000
v -33.74120000 -1.02032927 73.63190000
v -33.74120000 -6.02032927 73.63190000
v -33.50000000 -6.02032927 75.00000000
v -34.43580000 -6.02032927 72.42880000
v -34.43580000 -1.02032927 72.42880000
v -35.50000000 -6.02032927 71.53590000
v -35.50000000 -1.02032927 71.53590000
v -36.80540000 -6.02032927 71.06080000
v -36.80540000 -1.02032927 71.06080000
v -37.50000000 -6.02032927 71.06080000
v -37.50000000 -1.02032927 71.06080000
v -33.74120000 -6.02032927 -1.36810000
v -33.50000000 -6.02032927 0.0000000e+0
v -33.50000000 -1.02032927 0.0000000e+0
v -33.74120000 -1.02032927 -1.36810000
v -34.43580000 -6.02032927 -2.57120000
v -34.43580000 -1.02032927 -2.57120000
v -35.50000000 -1.02032927 -3.46410000
v -35.50000000 -6.02032927 -3.46410000
v -36.80540000 -6.02032927 -3.93920000
v -36.80540000 -1.02032927 -3.93920000
v -37.50000000 -6.02032927 -3.93920000
v -37.50000000 -1.02032927 -3.93920000
v -37.50000000 -1.02032927 3.93920000
v -36.80540000 -1.02032927 3.93920000
v -36.80540000 -6.02032927 3.93920000
v -37.50000000 -6.02032927 3.93920000
v -35.50000000 -1.02032927 3.46410000
v -35.50000000 -6.02032927 3.46410000
v -34.43580000 -1.02032927 2.57120000
v -34.43580000 -6.02032927 2.57120000
v -33.74120000 -1.02032927 1.36810000
v -33.74120000 -6.02032927 1.36810000
v 37.50000000 -1.02032927 -3.93920000
v 36.80540000 -1.02032927 -3.93920000
v 36.80540000 -6.02032927 -3.93920000
v 37.50000000 -6.02032927 -3.93920000
v 35.50000000 -6.02032927 -3.46410000
v 35.50000000 -1.02032927 -3.46410000
v 34.43580000 -6.02032927 -2.57120000
v 34.43580000 -1.02032927 -2.57120000
v 33.74120000 -1.02032927 -1.36810000
v 33.74120000 -6.02032927 -1.36810000
v 33.50000000 -6.02032927 0.0000000e+0
v 33.50000000 -1.02032927 0.0000000e+0
v 33.74120000 -6.02032927 1.36810000
v 33.74120000 -1.02032927 1.36810000
v 34.43580000 -6.02032927 2.57120000
v 34.43580000 -1.02032927 2.57120000
v 35.50000000 -6.02032927 3.46410000
v 35.50000000 -1.02032927 3.46410000
v 36.80540000 -6.02032927 3.93920000
v 36.80540000 -1.02032927 3.93920000
v 37.50000000 -1.02032927 3.93920000
v 37.50000000 -6.02032927 3.93920000
v 33.50000000 -1.02032927 -75.00000000
v 33.74120000 -1.02032927 -73.63190000
v 33.74120000 -6.02032927 -73.63190000
v 33.50000000 -6.02032927 -75.00000000
v 34.43580000 -6.02032927 -72.42880000
v 34.43580000 -1.02032927 -72.42880000
v 35.50000000 -6.02032927 -71.53590000
v 35.50000000 -1.02032927 -71.53590000
v 36.80540000 -6.02032927 -71.06080000
v 36.80540000 -1.02032927 -71.06080000
v 37.50000000 -1.02032927 -71.06080000
v 37.50000000 -6.02032927 -71.06080000
v -37.50000000 -1.02032927 -71.06080000
v -36.80540000 -1.02032927 -71.06080000
v -36.80540000 -6.02032927 -71.06080000
v -37.50000000 -6.02032927 -71.06080000
v -35.50000000 -6.02032927 -71.53590000
v -35.50000000 -1.02032927 -71.53590000
v -34.43580000 -1.02032927 -72.42880000
v -34.43580000 -6.02032927 -72.42880000
v -33.74120000 -1.02032927 -73.63190000
v -33.74120000 -6.02032927 -73.63190000
v -33.50000000 -6.02032927 -75.00000000
v -33.50000000 -1.02032927 -75.00000000
vt 1.0000000e-2 3.6100000e-2
vt 1.0000000e-2 0.47390000
vt 1.0000000e-2 0.52800000
vt 1.0000000e-2 0.56070000
vt 1.0000000e-2 0.58170000
vt 1.0000000e-2 0.59070000
vt 1.0000000e-2 0.59930000
vt 1.0000000e-2 0.60620000
vt 1.0000000e-2 0.63420000
vt 1.0000000e-2 0.64330000
vt 1.0000000e-2 0.65180000
vt 1.0000000e-2 0.65880000
vt 1.0000000e-2 0.68680000
vt 1.0000000e-2 0.69130000
vt 1.0000000e-2 0.69980000
vt 1.0000000e-2 0.70680000
vt 1.0000000e-2 0.73480000
vt 1.0000000e-2 0.74370000
vt 1.0000000e-2 0.75160000
vt 1.7000000e-2 0.52800000
vt 1.7000000e-2 0.56070000
vt 1.8900000e-2 3.4600000e-2
vt 1.8900000e-2 0.47540000
vt 2.5500000e-2 0.52800000
vt 2.5500000e-2 0.56070000
vt 2.6800000e-2 3.0000000e-2
vt 2.6800000e-2 0.48000000
vt 3.2600000e-2 2.3100000e-2
vt 3.2600000e-2 0.48690000
vt 3.4600000e-2 0.52800000
vt 3.4600000e-2 0.56070000
vt 3.5700000e-2 1.0000000e-2
vt 3.5700000e-2 1.4500000e-2
vt 3.5700000e-2 0.49550000
vt 3.5700000e-2 0.50000000
vt 4.2700000e-2 0.58170000
vt 4.2700000e-2 0.59070000
vt 4.2700000e-2 0.59930000
vt 4.2700000e-2 0.60620000
vt 4.2700000e-2 0.63420000
vt 4.2700000e-2 0.64330000
vt 4.2700000e-2 0.65180000
vt 4.2700000e-2 0.65880000
vt 4.2700000e-2 0.68680000
vt 4.2700000e-2 0.69130000
vt 4.2700000e-2 0.69980000
vt 4.2700000e-2 0.70680000
vt 4.2700000e-2 0.73480000
vt 4.2700000e-2 0.74370000
vt 4.2700000e-2 0.75160000
vt 4.3100000e-2 0.52800000
vt 4.3100000e-2 0.56070000
vt 5.0000000e-2 0.52800000
vt 5.0000000e-2 0.56070000
vt 7.1000000e-2 0.52800000
vt 7.1000000e-2 0.53710000
vt 7.1000000e-2 0.54560000
vt 7.1000000e-2 0.55260000
vt 7.1000000e-2 0.58060000
vt 7.1000000e-2 0.58960000
vt 7.1000000e-2 0.59820000
vt 7.1000000e-2 0.60160000
vt 7.1000000e-2 0.62960000
vt 7.1000000e-2 0.63420000
vt 7.1000000e-2 0.64270000
vt 7.1000000e-2 0.64970000
vt 7.1000000e-2 0.67760000
vt 7.1000000e-2 0.68550000
vt 7.1000000e-2 0.69440000
vt 0.10370000 0.52800000
vt 0.10370000 0.53710000
vt 0.10370000 0.54560000
vt 0.10370000 0.55260000
vt 0.10370000 0.58060000
vt 0.10370000 0.58960000
vt 0.10370000 0.59820000
vt 0.10370000 0.60160000
vt 0.10370000 0.62960000
vt 0.10370000 0.63420000
vt 0.10370000 0.64270000
vt 0.10370000 0.64970000
vt 0.10370000 0.67760000
vt 0.10370000 0.68550000
vt 0.10370000 0.69440000
vt 0.13170000 0.52800000
vt 0.13170000 0.53250000
vt 0.13170000 0.54110000
vt 0.13170000 0.54800000
vt 0.13170000 0.57600000
vt 0.13170000 0.58060000
vt 0.13170000 0.58910000
vt 0.13170000 0.59600000
vt 0.13170000 0.62400000
vt 0.13170000 0.63310000
vt 0.13170000 0.63740000
vt 0.16440000 0.52800000
vt 0.16440000 0.53250000
vt 0.16440000 0.54110000
vt 0.16440000 0.54800000
vt 0.16440000 0.57600000
vt 0.16440000 0.58060000
vt 0.16440000 0.58910000
vt 0.16440000 0.59600000
vt 0.16440000 0.62400000
vt 0.16440000 0.63310000
vt 0.16440000 0.63740000
vt 0.19240000 0.52800000
vt 0.19240000 0.53710000
vt 0.19240000 0.54560000
vt 0.19240000 0.57360000
vt 0.19240000 0.58270000
vt 0.19240000 0.58690000
vt 0.22500000 0.52800000
vt 0.22500000 0.53710000
vt 0.22500000 0.54560000
vt 0.22500000 0.57360000
vt 0.22500000 0.58270000
vt 0.22500000 0.58690000
vt 0.25300000 0.52800000
vt 0.25300000 0.53250000
vt 0.28570000 0.52800000
vt 0.28570000 0.53250000
vt 0.47430000 1.0000000e-2
vt 0.47430000 1.4500000e-2
vt 0.47430000 0.49550000
vt 0.47430000 0.50000000
vt 0.47740000 2.3100000e-2
vt 0.47740000 0.48690000
vt 0.48320000 3.0000000e-2
vt 0.48320000 0.48000000
vt 0.49110000 3.4600000e-2
vt 0.49110000 0.47540000
vt 0.50000000 3.6100000e-2
vt 0.50000000 0.47390000
vt 0.50890000 3.4600000e-2
vt 0.50890000 0.47540000
vt 0.51680000 3.0000000e-2
vt 0.51680000 0.48000000
vt 0.52260000 2.3100000e-2
vt 0.52260000 0.48690000
vt 0.52570000 1.0000000e-2
vt 0.52570000 1.4500000e-2
vt 0.52570000 0.49550000
vt 0.52570000 0.50000000
vt 0.96430000 1.0000000e-2
vt 0.96430000 1.4500000e-2
vt 0.96430000 0.49550000
vt 0.96430000 0.50000000
vt 0.96740000 2.3100000e-2
vt 0.96740000 0.48690000
vt 0.97320000 3.0000000e-2
vt 0.97320000 0.48000000
vt 0.98110000 3.4600000e-2
vt 0.98110000 0.47540000
vt 0.99000000 3.6100000e-2
vt 0.99000000 0.47390000
vn 0.17363927 0.0000000e+0 0.98480932
vn 0.0000000e+0 0.0000000e+0 1.00000000
vn 0.49997549 0.0000000e+0 0.86603955
vn 0.76603409 0.0000000e+0 0.64279994
vn 0.93969769 0.0000000e+0 0.34200621
vn 0.98481181 0.0000000e+0 0.17362518
vn -0.93969769 0.0000000e+0 0.34200621
vn -0.98481181 0.0000000e+0 0.17362518
vn -0.76603409 0.0000000e+0 0.64279994
vn -0.49997549 0.0000000e+0 0.86603955
vn -0.17363927 0.0000000e+0 0.98480932
vn 0.0000000e+0 0.0000000e+0 1.00000000
vn -0.93969769 0.0000000e+0 0.34200621
vn -1.00000000 0.0000000e+0 0.0000000e+0
vn -0.76603409 0.0000000e+0 0.64279994
vn -0.49997549 0.0000000e+0 0.86603955
vn -0.17363927 0.0000000e+0 0.98480932
vn 0.0000000e+0 0.0000000e+0 1.00000000
vn -0.17363927 0.0000000e+0 -0.98480932
vn 0.0000000e+0 0.0000000e+0 -1.00000000
vn -0.49997549 0.0000000e+0 -0.86603955
vn -0.76603409 0.0000000e+0 -0.64279994
vn -0.93969769 0.0000000e+0 -0.34200621
vn 0.17363927 0.0000000e+0 0.98480932
vn 0.0000000e+0 0.0000000e+0 1.00000000
vn 0.49997549 0.0000000e+0 0.86603955
vn 0.76603409 0.0000000e+0 0.64279994
vn 0.93969769 0.0000000e+0 0.34200621
vn 1.00000000 0.0000000e+0 0.0000000e+0
vn 0.93969769 0.0000000e+0 -0.34200621
vn 0.76603409 0.0000000e+0 -0.64279994
vn 0.49997549 0.0000000e+0 -0.86603955
vn 0.17363927 0.0000000e+0 -0.98480932
vn 0.0000000e+0 0.0000000e+0 -1.00000000
vn 0.93969769 0.0000000e+0 -0.34200621
vn 0.98481181 0.0000000e+0 -0.17362518
vn 0.76603409 0.0000000e+0 -0.64279994
vn 0.49997549 0.0000000e+0 -0.86603955
vn 0.17363927 0.0000000e+0 -0.98480932
vn 0.0000000e+0 0.0000000e+0 -1.00000000
vn -0.17363927 0.0000000e+0 -0.98480932
vn 0.0000000e+0 0.0000000e+0 -1.00000000
vn -0.49997549 0.0000000e+0 -0.86603955
vn -0.76603409 0.0000000e+0 -0.64279994
vn -0.93969769 0.0000000e+0 -0.34200621
vn -0.98481181 0.0000000e+0 -0.17362518
vn 0.17363927 0.0000000e+0 0.98480932
vn 0.17363927 0.0000000e+0 0.98480932
vn 0.0000000e+0 1.00000000 0.0000000e+0
vn 0.0000000e+0 1.00000000 0.0000000e+0
vn 0.0000000e+0 0.0000000e+0 1.00000000
vn 0.0000000e+0 1.00000000 0.0000000e+0
vn 0.49997549 0.0000000e+0 0.86603955
vn 0.49997549 0.0000000e+0 0.86603955
vn 0.0000000e+0 1.00000000 0.0000000e+0
vn 0.0000000e+0 1.00000000 0.0000000e+0
vn 0.76603409 0.0000000e+0 0.64279994
vn 0.76603409 0.0000000e+0 0.64279994
vn 0.0000000e+0 1.00000000 0.0000000e+0
vn 0.0000000e+0 1.00000000 0.0000000e+0
vn 0.0000000e+0 1.00000000 0.0000000e+0
vn 0.0000000e+0 1.00000000 0.0000000e+0
vn 0.93969769 0.0000000e+0 0.34200621
vn 0.93969769 0.0000000e+0 0.34200621
vn 0.0000000e+0 1.00000000 0.0000000e+0
vn 0.0000000e+0 1.00000000 0.0000000e+0
vn 0.98481181 0.0000000e+0 0.17362518
vn 0.0000000e+0 1.00000000 0.0000000e+0
vn -0.98481181 0.0000000e+0 0.17362518
vn 0.0000000e+0 1.00000000 0.0000000e+0
vn -0.93969769 0.0000000e+0 0.34200621
vn -0.93969769 0.0000000e+0 0.34200621
vn 0.0000000e+0 1.00000000 0.0000000e+0
vn 0.0000000e+0 1.00000000 0.0000000e+0
vn -0.76603409 0.0000000e+0 0.64279994
vn -0.76603409 0.0000000e+0 0.64279994
vn 0.0000000e+0 1.00000000 0.0000000e+0
vn 0.0000000e+0 1.00000000 0.0000000e+0
vn -0.49997549 0.0000000e+0 0.86603955
vn -0.49997549 0.0000000e+0 0.86603955
vn 0.0000000e+0 1.00000000 0.0000000e+0
vn 0.0000000e+0 1.00000000 0.0000000e+0
vn -0.17363927 0.0000000e+0 0.98480932
vn -0.17363927 0.0000000e+0 0.98480932
vn 0.0000000e+0 1.00000000 0.0000000e+0
vn 0.0000000e+0 1.00000000 0.0000000e+0
vn 0.0000000e+0 0.0000000e+0 1.00000000
vn 0.0000000e+0 1.00000000 0.0000000e+0
vn -1.00000000 0.0000000e+0 0.0000000e+0
vn -1.00000000 0.0000000e+0 0.0000000e+0
vn 0.0000000e+0 1.00000000 0.0000000e+0
vn 0.0000000e+0 1.00000000 0.0000000e+0
vn -0.93969769 0.0000000e+0 0.34200621
vn -0.93969769 0.0000000e+0 0.34200621
vn 0.0000000e+0 1.00000000 0.0000000e+0
vn 0.0000000e+0 1.00000000 0.0000000e+0
vn -0.76603409 0.0000000e+0 0.64279994
vn -0.76603409 0.0000000e+0 0.64279994
vn 0.0000000e+0 1.00000000 0.0000000e+0
vn 0.0000000e+0 1.00000000 0.0000000e+0
vn 0.0000000e+0 1.00000000 0.0000000e+0
vn -0.49997549 0.0000000e+0 0.86603955
vn -0.49997549 0.0000000e+0 0.86603955
vn 0.0000000e+0 1.00000000 0.0000000e+0
vn 0.0000000e+0 1.00000000 0.0000000e+0
vn 0.0000000e+0 1.00000000 0.0000000e+0
vn -0.17363927 0.0000000e+0 0.98480932
vn -0.17363927 0.0000000e+0 0.98480932
vn 0.0000000e+0 1.00000000 0.0000000e+0
vn 0.0000000e+0 1.00000000 0.0000000e+0
vn 0.0000000e+0 0.0000000e+0 1.00000000
vn 0.0000000e+0 1.00000000 0.0000000e+0
vn 0.0000000e+0 0.0000000e+0 -1.00000000
vn 0.0000000e+0 1.00000000 0.0000000e+0
vn -0.17363927 0.0000000e+0 -0.98480932
vn -0.17363927 0.0000000e+0 -0.98480932
vn 0.0000000e+0 1.00000000 0.0000000e+0
vn 0.0000000e+0 1.00000000 0.0000000e+0
vn -0.49997549 0.0000000e+0 -0.86603955
vn -0.49997549 0.0000000e+0 -0.86603955
vn 0.0000000e+0 1.00000000 0.0000000e+0
vn 0.0000000e+0 1.00000000 0.0000000e+0
vn 0.0000000e+0 1.00000000 0.0000000e+0
vn -0.76603409 0.0000000e+0 -0.64279994
vn -0.76603409 0.0000000e+0 -0.64279994
vn 0.0000000e+0 1.00000000 0.0000000e+0
vn 0.0000000e+0 1.00000000 0.0000000e+0
vn -0.93969769 0.0000000e+0 -0.34200621
vn -0.93969769 0.0000000e+0 -0.34200621
vn 0.0000000e+0 1.00000000 0.0000000e+0
vn 0.0000000e+0 1.00000000 0.0000000e+0
vn 0.0000000e+0 0.0000000e+0 1.00000000
vn 0.0000000e+0 1.00000000 0.0000000e+0
vn 0.17363927 0.0000000e+0 0.98480932
vn 0.17363927 0.0000000e+0 0.98480932
vn 0.0000000e+0 1.00000000 0.0000000e+0
vn 0.0000000e+0 1.00000000 0.0000000e+0
vn 0.49997549 0.0000000e+0 0.86603955
vn 0.49997549 0.0000000e+0 0.86603955
vn 0.0000000e+0 1.00000000 0.0000000e+0
vn 0.0000000e+0 1.00000000 0.0000000e+0
vn 0.76603409 0.0000000e+0 0.64279994
vn 0.76603409 0.0000000e+0 0.64279994
vn 0.0000000e+0 1.00000000 0.0000000e+0
vn 0.0000000e+0 1.00000000 0.0000000e+0
vn 0.93969769 0.0000000e+0 0.34200621
vn 0.93969769 0.0000000e+0 0.34200621
vn 0.0000000e+0 1.00000000 0.0000000e+0
vn 0.0000000e+0 1.00000000 0.0000000e+0
vn 1.00000000 0.0000000e+0 0.0000000e+0
vn 1.00000000 0.0000000e+0 0.0000000e+0
vn 0.0000000e+0 1.00000000 0.0000000e+0
vn 0.0000000e+0 1.00000000 0.0000000e+0
vn 0.93969769 0.0000000e+0 -0.34200621
vn 0.93969769 0.0000000e+0 -0.34200621
vn 0.0000000e+0 1.00000000 0.0000000e+0
vn 0.0000000e+0 1.00000000 0.0000000e+0
vn 0.76603409 0.0000000e+0 -0.64279994
vn 0.76603409 0.0000000e+0 -0.64279994
vn 0.0000000e+0 1.00000000 0.0000000e+0
vn 0.0000000e+0 1.00000000 0.0000000e+0
vn 0.0000000e+0 1.00000000 0.0000000e+0
vn 0.49997549 0.0000000e+0 -0.86603955
vn 0.49997549 0.0000000e+0 -0.86603955
vn 0.0000000e+0 1.00000000 0.0000000e+0
vn 0.0000000e+0 1.00000000 0.0000000e+0
vn 0.17363927 0.0000000e+0 -0.98480932
vn 0.17363927 0.0000000e+0 -0.98480932
vn 0.0000000e+0 1.00000000 0.0000000e+0
vn 0.0000000e+0 1.00000000 0.0000000e+0
vn 0.0000000e+0 0.0000000e+0 -1.00000000
vn 0.0000000e+0 1.00000000 0.0000000e+0
vn 0.98481181 0.0000000e+0 -0.17362518
vn 0.0000000e+0 1.00000000 0.0000000e+0
vn 0.93969769 0.0000000e+0 -0.34200621
vn 0.93969769 0.0000000e+0 -0.34200621
vn 0.0000000e+0 1.00000000 0.0000000e+0
vn 0.0000000e+0 1.00000000 0.0000000e+0
vn 0.76603409 0.0000000e+0 -0.64279994
vn 0.76603409 0.0000000e+0 -0.64279994
vn 0.0000000e+0 1.00000000 0.0000000e+0
vn 0.0000000e+0 1.00000000 0.0000000e+0
vn 0.0000000e+0 1.00000000 0.0000000e+0
vn 0.49997549 0.0000000e+0 -0.86603955
vn 0.49997549 0.0000000e+0 -0.86603955
vn 0.0000000e+0 1.00000000 0.0000000e+0
vn 0.0000000e+0 1.00000000 0.0000000e+0
vn 0.0000000e+0 1.00000000 0.0000000e+0
vn 0.17363927 0.0000000e+0 -0.98480932
vn 0.17363927 0.0000000e+0 -0.98480932
vn 0.0000000e+0 1.00000000 0.0000000e+0
vn 0.0000000e+0 1.00000000 0.0000000e+0
vn 0.0000000e+0 0.0000000e+0 -1.00000000
vn 0.0000000e+0 1.00000000 0.0000000e+0
vn 0.0000000e+0 0.0000000e+0 -1.00000000
vn 0.0000000e+0 1.00000000 0.0000000e+0
vn -0.17363927 0.0000000e+0 -0.98480932
vn -0.17363927 0.0000000e+0 -0.98480932
vn 0.0000000e+0 1.00000000 0.0000000e+0
vn 0.0000000e+0 1.00000000 0.0000000e+0
vn -0.49997549 0.0000000e+0 -0.86603955
vn -0.49997549 0.0000000e+0 -0.86603955
vn 0.0000000e+0 1.00000000 0.0000000e+0
vn 0.0000000e+0 1.00000000 0.0000000e+0
vn -0.76603409 0.0000000e+0 -0.64279994
vn -0.76603409 0.0000000e+0 -0.64279994
vn 0.0000000e+0 1.00000000 0.0000000e+0
vn 0.0000000e+0 1.00000000 0.0000000e+0
vn -0.93969769 0.0000000e+0 -0.34200621
vn -0.93969769 0.0000000e+0 -0.34200621
vn 0.0000000e+0 1.00000000 0.0000000e+0
vn 0.0000000e+0 1.00000000 0.0000000e+0
vn -0.98481181 0.0000000e+0 -0.17362518
vn 0.0000000e+0 1.00000000 0.0000000e+0
g Quader001_wire_057008136
usemtl wire_057008136
s 1
f 1/97/48 5/98/53 6/87/3 2/86/1
f 1/33/50 66/124/170 64/127/165 5/28/55
f 2/86/1 3/85/2 4/96/51 1/97/47
f 4/32/52 67/123/172 66/124/169 1/33/49
f 5/98/54 7/99/57 8/88/4 6/87/3
f 5/28/56 64/127/166 62/129/160 7/26/60
f 7/113/58 9/114/63 10/108/5 8/107/4
f 7/26/59 18/27/77 14/23/74 9/22/66
f 7/26/62 41/128/122 20/29/81 18/27/78
f 7/26/61 62/129/162 43/130/127 41/128/121
f 9/114/64 12/115/67 11/109/6 10/108/5
f 9/22/65 14/23/73 13/2/70 12/1/68
f 14/37/71 15/6/7 16/5/8 13/36/69
f 14/37/72 18/38/75 17/7/9 15/6/7
f 18/38/76 20/39/79 19/8/10 17/7/9
f 20/104/80 22/105/83 21/94/11 19/93/10
f 20/29/82 41/128/123 38/125/117 22/34/85
f 22/105/84 24/106/87 23/95/12 21/94/11
f 22/34/86 38/125/118 37/126/114 24/35/88
f 26/25/14 27/24/89 28/30/93 25/31/13
f 26/25/14 46/21/23 45/20/129 27/24/90
f 27/134/91 58/133/152 55/135/149 28/136/96
f 28/30/94 30/51/97 29/52/15 25/31/13
f 28/136/95 55/135/148 54/137/145 30/138/101
f 30/51/98 31/53/102 32/54/16 29/52/15
f 30/138/99 76/149/187 74/151/183 31/140/106
f 31/116/103 34/117/107 33/111/17 32/110/16
f 31/140/104 86/150/203 82/147/200 34/143/110
f 34/117/108 36/118/111 35/112/18 33/111/17
f 34/143/109 82/147/199 81/148/196 36/144/112
f 38/45/115 39/14/19 40/13/20 37/44/113
f 38/45/116 41/46/119 42/15/21 39/14/19
f 41/46/120 43/47/124 44/16/22 42/15/21
f 43/3/125 45/20/128 46/21/23 44/4/22
f 43/130/126 62/129/161 60/131/157 45/132/131
f 45/132/130 60/131/156 58/133/153 27/134/92
f 47/141/133 79/145/194 78/146/191 48/142/136
f 48/101/134 49/90/24 50/89/25 47/100/132
f 48/101/135 52/102/138 51/91/26 49/90/24
f 48/142/137 78/146/192 76/149/186 52/139/140
f 52/102/139 54/103/142 53/92/27 51/91/26
f 54/137/144 52/139/141 76/149/188 30/138/100
f 54/70/143 55/71/146 56/56/28 53/55/27
f 55/71/147 58/72/150 57/57/29 56/56/28
f 58/72/151 60/73/154 59/58/30 57/57/29
f 60/40/155 62/41/158 61/10/31 59/9/30
f 62/41/159 64/42/163 63/11/32 61/10/31
f 64/42/164 66/43/167 65/12/33 63/11/32
f 66/121/168 67/122/171 68/120/34 65/119/33
f 69/155/174 92/156/214 89/154/211 70/153/177
f 70/49/175 71/18/35 72/17/36 69/48/173
f 70/49/176 74/50/179 73/19/37 71/18/35
f 70/153/178 89/154/212 87/152/207 74/151/181
f 74/74/180 76/75/184 75/60/38 73/59/37
f 74/151/182 87/152/208 86/150/204 31/140/105
f 76/75/185 78/76/189 77/61/39 75/60/38
f 78/76/190 79/77/193 80/62/40 77/61/39
f 82/79/197 83/64/41 84/63/42 81/78/195
f 82/79/198 86/80/201 85/65/43 83/64/41
f 86/80/202 87/81/205 88/66/44 85/65/43
f 87/82/206 89/83/209 90/68/45 88/67/44
f 89/83/210 92/84/213 91/69/46 90/68/45
