# Exported from Wings 3D 1.5.3
mtllib cube.mtl
o Cube2
#8 vertices, 6 faces
v -1.00000000 -1.00000000 -1.00000000
v -1.00000000 -1.00000000 1.00000000
v -1.00000000 1.00000000 -1.00000000
v -1.00000000 1.00000000 1.00000000
v 1.00000000 -1.00000000 -1.00000000
v 1.00000000 -1.00000000 1.00000000
v 1.00000000 1.00000000 -1.00000000
v 1.00000000 1.00000000 1.00000000
vt 0.0000000e+0 0.0000000e+0
vt 0.0000000e+0 1.00000000
vt 0.0000000e+0 1.00000000
vt 2.2204460e-16 2.2204460e-16
vt 2.2204460e-16 1.00000000
vt 4.4408921e-16 2.2204460e-16
vt 1.00000000 4.4408921e-16
vt 1.00000000 1.00000000
vt 1.00000000 1.00000000
vt 1.00000000 0.0000000e+0
vt 1.00000000 1.00000000
vt 1.00000000 0.0000000e+0
vt 1.00000000 4.4408921e-16
vt 1.00000000 1.00000000
vn -0.57735027 -0.57735027 -0.57735027
vn -0.57735027 -0.57735027 0.57735027
vn -0.57735027 0.57735027 -0.57735027
vn -0.57735027 0.57735027 0.57735027
vn 0.57735027 -0.57735027 -0.57735027
vn 0.57735027 -0.57735027 0.57735027
vn 0.57735027 0.57735027 -0.57735027
vn 0.57735027 0.57735027 0.57735027
g Cube2_Cube2_auv
usemtl Cube2_auv
s 1
f 1/14/1 5/3/5 6/1/6 2/12/2
f 2/7/2 4/9/4 3/5/3 1/4/1
f 2/1/2 6/10/6 8/11/8 4/2/4
f 3/11/3 7/2/7 5/1/5 1/10/1
f 4/6/4 8/13/8 7/8/7 3/5/3
f 5/10/5 7/11/7 8/2/8 6/1/6
