# Exported from Wings 3D 1.5.3
mtllib koe.mtl
o Cylinder2
#128 vertices, 66 faces
v 0.46600000 7.8356142e-15 -1.07256710
v 0.46375608 -4.5675987e-2 -1.07256710
v 0.45704594 -9.0912090e-2 -1.07256710
v 0.44593420 -0.13527266 -1.07256710
v 0.43052786 -0.17833048 -1.07256710
v 0.41097531 -0.21967088 -1.07256710
v 0.38746484 -0.25889573 -1.07256710
v 0.36022287 -0.29562727 -1.07256710
v 0.32951176 -0.32951176 -1.07256710
v 0.29562727 -0.36022287 -1.07256710
v 0.25889573 -0.38746484 -1.07256710
v 0.21967088 -0.41097531 -1.07256710
v 0.17833048 -0.43052786 -1.07256710
v 0.13527266 -0.44593420 -1.07256710
v 9.0912090e-2 -0.45704594 -1.07256710
v 4.5675987e-2 -0.46375608 -1.07256710
v 2.5966850e-18 -0.46600000 -1.07256710
v -4.5675987e-2 -0.46375608 -1.07256710
v -9.0912090e-2 -0.45704594 -1.07256710
v -0.13527266 -0.44593420 -1.07256710
v -0.17833048 -0.43052786 -1.07256710
v -0.21967088 -0.41097531 -1.07256710
v -0.25889573 -0.38746484 -1.07256710
v -0.29562727 -0.36022287 -1.07256710
v -0.32951176 -0.32951176 -1.07256710
v -0.36022287 -0.29562727 -1.07256710
v -0.38746484 -0.25889573 -1.07256710
v -0.41097531 -0.21967088 -1.07256710
v -0.43052786 -0.17833048 -1.07256710
v -0.44593420 -0.13527266 -1.07256710
v -0.45704594 -9.0912090e-2 -1.07256710
v -0.46375608 -4.5675987e-2 -1.07256710
v -0.46600000 7.7785457e-15 -1.07256710
v -0.46375608 4.5675987e-2 -1.07256710
v -0.45704594 9.0912090e-2 -1.07256710
v -0.44593420 0.13527266 -1.07256710
v -0.43052786 0.17833048 -1.07256710
v -0.41097531 0.21967088 -1.07256710
v -0.38746484 0.25889573 -1.07256710
v -0.36022287 0.29562727 -1.07256710
v -0.32951176 0.32951176 -1.07256710
v -0.29562727 0.36022287 -1.07256710
v -0.25889573 0.38746484 -1.07256710
v -0.21967088 0.41097531 -1.07256710
v -0.17833048 0.43052786 -1.07256710
v -0.13527266 0.44593420 -1.07256710
v -9.0912090e-2 0.45704594 -1.07256710
v -4.5675987e-2 0.46375608 -1.07256710
v -1.1154040e-16 0.46600000 -1.07256710
v 4.5675987e-2 0.46375608 -1.07256710
v 9.0912090e-2 0.45704594 -1.07256710
v 0.13527266 0.44593420 -1.07256710
v 0.17833048 0.43052786 -1.07256710
v 0.21967088 0.41097531 -1.07256710
v 0.25889573 0.38746484 -1.07256710
v 0.29562727 0.36022287 -1.07256710
v 0.32951176 0.32951176 -1.07256710
v 0.36022287 0.29562727 -1.07256710
v 0.38746484 0.25889573 -1.07256710
v 0.41097531 0.21967088 -1.07256710
v 0.43052786 0.17833048 -1.07256710
v 0.44593420 0.13527266 -1.07256710
v 0.45704594 9.0912090e-2 -1.07256710
v 0.46375608 4.5675987e-2 -1.07256710
v 1.00000000 3.7608183e-15 -67.69656710
v 0.99518473 -9.8017140e-2 -67.69656710
v 0.98078528 -0.19509032 -67.69656710
v 0.95694034 -0.29028468 -67.69656710
v 0.92387953 -0.38268343 -67.69656710
v 0.88192126 -0.47139674 -67.69656710
v 0.83146961 -0.55557023 -67.69656710
v 0.77301045 -0.63439328 -67.69656710
v 0.70710678 -0.70710678 -67.69656710
v 0.63439328 -0.77301045 -67.69656710
v 0.55557023 -0.83146961 -67.69656710
v 0.47139674 -0.88192126 -67.69656710
v 0.38268343 -0.92387953 -67.69656710
v 0.29028468 -0.95694034 -67.69656710
v 0.19509032 -0.98078528 -67.69656710
v 9.8017140e-2 -0.99518473 -67.69656710
v 6.1232340e-17 -1.00000000 -67.69656710
v -9.8017140e-2 -0.99518473 -67.69656710
v -0.19509032 -0.98078528 -67.69656710
v -0.29028468 -0.95694034 -67.69656710
v -0.38268343 -0.92387953 -67.69656710
v -0.47139674 -0.88192126 -67.69656710
v -0.55557023 -0.83146961 -67.69656710
v -0.63439328 -0.77301045 -67.69656710
v -0.70710678 -0.70710678 -67.69656710
v -0.77301045 -0.63439328 -67.69656710
v -0.83146961 -0.55557023 -67.69656710
v -0.88192126 -0.47139674 -67.69656710
v -0.92387953 -0.38268343 -67.69656710
v -0.95694034 -0.29028468 -67.69656710
v -0.98078528 -0.19509032 -67.69656710
v -0.99518473 -9.8017140e-2 -67.69656710
v -1.00000000 3.6383537e-15 -67.69656710
v -0.99518473 9.8017140e-2 -67.69656710
v -0.98078528 0.19509032 -67.69656710
v -0.95694034 0.29028468 -67.69656710
v -0.92387953 0.38268343 -67.69656710
v -0.88192126 0.47139674 -67.69656710
v -0.83146961 0.55557023 -67.69656710
v -0.77301045 0.63439328 -67.69656710
v -0.70710678 0.70710678 -67.69656710
v -0.63439328 0.77301045 -67.69656710
v -0.55557023 0.83146961 -67.69656710
v -0.47139674 0.88192126 -67.69656710
v -0.38268343 0.92387953 -67.69656710
v -0.29028468 0.95694034 -67.69656710
v -0.19509032 0.98078528 -67.69656710
v -9.8017140e-2 0.99518473 -67.69656710
v -1.8369702e-16 1.00000000 -67.69656710
v 9.8017140e-2 0.99518473 -67.69656710
v 0.19509032 0.98078528 -67.69656710
v 0.29028468 0.95694034 -67.69656710
v 0.38268343 0.92387953 -67.69656710
v 0.47139674 0.88192126 -67.69656710
v 0.55557023 0.83146961 -67.69656710
v 0.63439328 0.77301045 -67.69656710
v 0.70710678 0.70710678 -67.69656710
v 0.77301045 0.63439328 -67.69656710
v 0.83146961 0.55557023 -67.69656710
v 0.88192126 0.47139674 -67.69656710
v 0.92387953 0.38268343 -67.69656710
v 0.95694034 0.29028468 -67.69656710
v 0.98078528 0.19509032 -67.69656710
v 0.99518473 9.8017140e-2 -67.69656710
vt -5.5511151e-17 0.49116840
vt 1.9602437e-8 0.49264077
vt 1.1384759e-6 0.48969603
vt 1.1972832e-6 0.49411313
vt 3.4350296e-6 0.48822367
vt 3.5330417e-6 0.49558550
vt 6.8896595e-6 0.48675131
vt 7.0268764e-6 0.49705786
vt 1.1502363e-5 0.48527895
vt 1.1678785e-5 0.49853022
vt 1.7273139e-5 0.48380659
vt 1.7488765e-5 0.50000257
vt 2.4201982e-5 0.48233424
vt 2.4456812e-5 0.50147492
vt 3.2288888e-5 0.48086190
vt 3.2582923e-5 0.50294727
vt 4.1533853e-5 0.47938956
vt 4.1867092e-5 0.50441960
vt 5.1936870e-5 0.47791723
vt 5.2309313e-5 0.50589193
vt 6.3497934e-5 0.47644491
vt 6.3909581e-5 0.50736425
vt 7.6217037e-5 0.47497260
vt 7.6667887e-5 0.50883657
vt 9.0094171e-5 0.47350030
vt 9.0584224e-5 0.51030887
vt 1.0512933e-4 0.47202801
vt 1.0565858e-4 0.51178116
vt 1.2132250e-4 0.47055573
vt 1.2189096e-4 0.51325343
vt 1.3867367e-4 0.46908347
vt 1.3928133e-4 0.51472570
vt 1.5718284e-4 0.46761122
vt 1.5782970e-4 0.51619795
vt 1.7684998e-4 0.46613898
vt 1.7753605e-4 0.51767018
vt 1.9767510e-4 0.46466676
vt 1.9840037e-4 0.51914240
vt 2.1965817e-4 0.46319456
vt 2.2042264e-4 0.52061460
vt 2.4279919e-4 0.46172237
vt 2.4360285e-4 0.52208678
vt 2.6709813e-4 0.46025021
vt 2.6794100e-4 0.52355895
vt 2.9255499e-4 0.45877806
vt 2.9343705e-4 0.52503110
vt 3.1916974e-4 0.45730594
vt 3.2009100e-4 0.52650322
vt 3.4694237e-4 0.45583383
vt 3.4790283e-4 0.52797532
vt 3.7587287e-4 0.45436175
vt 3.7687253e-4 0.52944741
vt 4.0596122e-4 0.45288969
vt 4.0700007e-4 0.53091946
vt 4.3828544e-4 0.53239150
vt 4.7072861e-4 0.53386351
vt 5.0432957e-4 0.53533549
vt 5.3908830e-4 0.53680745
vt 5.7500477e-4 0.53827937
vt 6.1207897e-4 0.53975127
vt 6.5031087e-4 0.54122314
vt 6.8970044e-4 0.54269498
vt 7.3024766e-4 0.54416679
vt 7.7195251e-4 0.54563857
vt 8.1481496e-4 0.54711031
vt 0.10530000 0.74195996
vt 0.10538749 0.74374084
vt 0.10538749 0.74017907
vt 0.10564912 0.74550458
vt 0.10564912 0.73841533
vt 0.10608236 0.74723418
vt 0.10608236 0.73668573
vt 0.10668304 0.74891299
vt 0.10668304 0.73500692
vt 0.10744539 0.75052483
vt 0.10744539 0.73339508
vt 0.10836205 0.75205420
vt 0.10836205 0.73186572
vt 0.10942421 0.75348634
vt 0.10942421 0.73043357
vt 0.11062162 0.75480749
vt 0.11062162 0.72911243
vt 0.11194276 0.75600490
vt 0.11194276 0.72791501
vt 0.11337491 0.75706705
vt 0.11337491 0.72685286
vt 0.11490427 0.75798372
vt 0.11490427 0.72593620
vt 0.11651612 0.75874606
vt 0.11651612 0.72517385
vt 0.11819492 0.75934675
vt 0.11819492 0.72457317
vt 0.11992452 0.75977999
vt 0.11992452 0.72413992
vt 0.12168826 0.76004162
vt 0.12168826 0.72387830
vt 0.12346915 0.76012911
vt 0.12346915 0.72379081
vt 0.12525004 0.76004162
vt 0.12525004 0.72387830
vt 0.12701377 0.75977999
vt 0.12701377 0.72413992
vt 0.12874337 0.75934675
vt 0.12874337 0.72457317
vt 0.13042218 0.75874606
vt 0.13042218 0.72517385
vt 0.13203403 0.75798372
vt 0.13203403 0.72593620
vt 0.13356339 0.75706705
vt 0.13356339 0.72685286
vt 0.13499553 0.75600490
vt 0.13499553 0.72791501
vt 0.13631668 0.75480749
vt 0.13631668 0.72911243
vt 0.13751409 0.75348634
vt 0.13751409 0.73043357
vt 0.13857624 0.75205420
vt 0.13857624 0.73186572
vt 0.13949291 0.75052483
vt 0.13949291 0.73339508
vt 0.14025525 0.74891299
vt 0.14025525 0.73500692
vt 0.14085594 0.74723418
vt 0.14085594 0.73668573
vt 0.14128918 0.74550458
vt 0.14128918 0.73841533
vt 0.14155081 0.74374084
vt 0.14155081 0.74017907
vt 0.14163830 0.73225763
vt 0.14163830 0.74195996
vt 0.14167907 0.73308753
vt 0.14167907 0.73142774
vt 0.14180099 0.73390943
vt 0.14180099 0.73060584
vt 0.14200288 0.73471542
vt 0.14200288 0.72979984
vt 0.14228280 0.73549774
vt 0.14228280 0.72901752
vt 0.14263805 0.73624886
vt 0.14263805 0.72826640
vt 0.14306521 0.73696155
vt 0.14306521 0.72755372
vt 0.14356018 0.73762893
vt 0.14356018 0.72688634
vt 0.14411817 0.73824458
vt 0.14411817 0.72627068
vt 0.14473383 0.73880257
vt 0.14473383 0.72571269
vt 0.14540121 0.73929754
vt 0.14540121 0.72521772
vt 0.14611389 0.73972470
vt 0.14611389 0.72479056
vt 0.14686501 0.74007996
vt 0.14686501 0.72443531
vt 0.14764733 0.74035988
vt 0.14764733 0.72415539
vt 0.14845333 0.74056177
vt 0.14845333 0.72395350
vt 0.14927523 0.74068368
vt 0.14927523 0.72383158
vt 0.15010512 0.74072445
vt 0.15010512 0.72379081
vt 0.15093501 0.74068368
vt 0.15093501 0.72383158
vt 0.15175692 0.74056177
vt 0.15175692 0.72395350
vt 0.15256291 0.74035988
vt 0.15256291 0.72415539
vt 0.15334523 0.74007996
vt 0.15334523 0.72443531
vt 0.15409635 0.73972470
vt 0.15409635 0.72479056
vt 0.15480904 0.73929754
vt 0.15480904 0.72521772
vt 0.15547642 0.73880257
vt 0.15547642 0.72571269
vt 0.15609207 0.73824458
vt 0.15609207 0.72627068
vt 0.15665006 0.73762893
vt 0.15665006 0.72688634
vt 0.15714503 0.73696155
vt 0.15714503 0.72755372
vt 0.15757219 0.73624886
vt 0.15757219 0.72826640
vt 0.15792745 0.73549774
vt 0.15792745 0.72901752
vt 0.15820737 0.73471542
vt 0.15820737 0.72979984
vt 0.15840926 0.73390943
vt 0.15840926 0.73060584
vt 0.15853117 0.73142774
vt 0.15853117 0.73308753
vt 0.15857194 0.73225763
vt 0.99962030 0.49154821
vt 0.99962031 0.49223434
vt 0.99962083 0.49086209
vt 0.99962085 0.49292046
vt 0.99962190 0.49017597
vt 0.99962194 0.49360658
vt 0.99962351 0.48948985
vt 0.99962357 0.49429270
vt 0.99962566 0.48880373
vt 0.99962574 0.49497882
vt 0.99962835 0.48811761
vt 0.99962845 0.49566494
vt 0.99963157 0.48743150
vt 0.99963169 0.49635105
vt 0.99963534 0.48674538
vt 0.99963548 0.49703716
vt 0.99963965 0.48605927
vt 0.99963981 0.49772327
vt 0.99964450 0.48537317
vt 0.99964467 0.49840938
vt 0.99964989 0.48468707
vt 0.99965008 0.49909548
vt 0.99965581 0.48400097
vt 0.99965602 0.49978158
vt 0.99966228 0.48331488
vt 0.99966251 0.50046767
vt 0.99966929 0.48262879
vt 0.99966953 0.50115376
vt 0.99967683 0.48194271
vt 0.99967710 0.50183984
vt 0.99968492 0.48125663
vt 0.99968520 0.50252591
vt 0.99969354 0.48057056
vt 0.99969384 0.50321198
vt 0.99970271 0.47988450
vt 0.99970303 0.50389804
vt 0.99971241 0.47919845
vt 0.99971275 0.50458410
vt 0.99972266 0.47851240
vt 0.99972301 0.50527014
vt 0.99973344 0.47782636
vt 0.99973382 0.50595618
vt 0.99974476 0.47714034
vt 0.99974516 0.50664221
vt 0.99975663 0.47645432
vt 0.99975704 0.50732823
vt 0.99976903 0.47576830
vt 0.99976946 0.50801424
vt 0.99978197 0.47508230
vt 0.99978242 0.50870024
vt 0.99979545 0.47439631
vt 0.99979592 0.50938623
vt 0.99980947 0.47371033
vt 0.99980996 0.51007221
vt 0.99982454 0.51075818
vt 0.99983966 0.51144413
vt 0.99985531 0.51213008
vt 0.99987151 0.51281601
vt 0.99988825 0.51350193
vt 0.99990553 0.51418783
vt 0.99992334 0.51487372
vt 0.99994170 0.51555960
vt 0.99996059 0.51624546
vt 0.99998003 0.51693131
vt 1.00000000 0.51761714
vn 0.89132765 2.4769941e-17 0.45335970
vn 0.88703567 -8.7365388e-2 0.45335970
vn 0.87420104 -0.17388940 0.45335970
vn 0.85294738 -0.25873876 0.45335970
vn 0.82347937 -0.34109633 0.45335970
vn 0.78608081 -0.42016895 0.45335970
vn 0.74111186 -0.49519511 0.45335970
vn 0.68900559 -0.56545228 0.45335970
vn 0.63026383 -0.63026383 0.45335970
vn 0.56545228 -0.68900559 0.45335970
vn 0.49519511 -0.74111186 0.45335970
vn 0.42016895 -0.78608081 0.45335970
vn 0.34109633 -0.82347937 0.45335970
vn 0.25873876 -0.85294738 0.45335970
vn 0.17388940 -0.87420104 0.45335970
vn 8.7365388e-2 -0.88703567 0.45335970
vn 3.5297166e-16 -0.89132765 0.45335970
vn -8.7365388e-2 -0.88703567 0.45335970
vn -0.17388940 -0.87420104 0.45335970
vn -0.25873876 -0.85294738 0.45335970
vn -0.34109633 -0.82347937 0.45335970
vn -0.42016895 -0.78608081 0.45335970
vn -0.49519511 -0.74111186 0.45335970
vn -0.56545228 -0.68900559 0.45335970
vn -0.63026383 -0.63026383 0.45335970
vn -0.68900559 -0.56545228 0.45335970
vn -0.74111186 -0.49519511 0.45335970
vn -0.78608081 -0.42016895 0.45335970
vn -0.82347937 -0.34109633 0.45335970
vn -0.85294738 -0.25873876 0.45335970
vn -0.87420104 -0.17388940 0.45335970
vn -0.88703567 -8.7365388e-2 0.45335970
vn -0.89132765 -6.6259593e-16 0.45335970
vn -0.88703567 8.7365388e-2 0.45335970
vn -0.87420104 0.17388940 0.45335970
vn -0.85294738 0.25873876 0.45335970
vn -0.82347937 0.34109633 0.45335970
vn -0.78608081 0.42016895 0.45335970
vn -0.74111186 0.49519511 0.45335970
vn -0.68900559 0.56545228 0.45335970
vn -0.63026383 0.63026383 0.45335970
vn -0.56545228 0.68900559 0.45335970
vn -0.49519511 0.74111186 0.45335970
vn -0.42016895 0.78608081 0.45335970
vn -0.34109633 0.82347937 0.45335970
vn -0.25873876 0.85294738 0.45335970
vn -0.17388940 0.87420104 0.45335970
vn -8.7365388e-2 0.88703567 0.45335970
vn 2.1673699e-17 0.89132765 0.45335970
vn 8.7365388e-2 0.88703567 0.45335970
vn 0.17388940 0.87420104 0.45335970
vn 0.25873876 0.85294738 0.45335970
vn 0.34109633 0.82347937 0.45335970
vn 0.42016895 0.78608081 0.45335970
vn 0.49519511 0.74111186 0.45335970
vn 0.56545228 0.68900559 0.45335970
vn 0.63026383 0.63026383 0.45335970
vn 0.68900559 0.56545228 0.45335970
vn 0.74111186 0.49519511 0.45335970
vn 0.78608081 0.42016895 0.45335970
vn 0.82347937 0.34109633 0.45335970
vn 0.85294738 0.25873876 0.45335970
vn 0.87420104 0.17388940 0.45335970
vn 0.88703567 8.7365388e-2 0.45335970
vn 0.89706535 2.4929392e-17 -0.44189790
vn 0.89274574 -8.7927781e-2 -0.44189790
vn 0.87982849 -0.17500877 -0.44189790
vn 0.85843802 -0.26040433 -0.44189790
vn 0.82878032 -0.34329205 -0.44189790
vn 0.79114101 -0.42287368 -0.44189790
vn 0.74588258 -0.49838281 -0.44189790
vn 0.69344089 -0.56909223 -0.44189790
vn 0.63432099 -0.63432099 -0.44189790
vn 0.56909223 -0.69344089 -0.44189790
vn 0.49838281 -0.74588258 -0.44189790
vn 0.42287368 -0.79114101 -0.44189790
vn 0.34329205 -0.82878032 -0.44189790
vn 0.26040433 -0.85843802 -0.44189790
vn 0.17500877 -0.87982849 -0.44189790
vn 8.7927781e-2 -0.89274574 -0.44189790
vn -3.2283562e-15 -0.89706535 -0.44189790
vn -8.7927781e-2 -0.89274574 -0.44189790
vn -0.17500877 -0.87982849 -0.44189790
vn -0.26040433 -0.85843802 -0.44189790
vn -0.34329205 -0.82878032 -0.44189790
vn -0.42287368 -0.79114101 -0.44189790
vn -0.49838281 -0.74588258 -0.44189790
vn -0.56909223 -0.69344089 -0.44189790
vn -0.63432099 -0.63432099 -0.44189790
vn -0.69344089 -0.56909223 -0.44189790
vn -0.74588258 -0.49838281 -0.44189790
vn -0.79114101 -0.42287368 -0.44189790
vn -0.82878032 -0.34329205 -0.44189790
vn -0.85843802 -0.26040433 -0.44189790
vn -0.87982849 -0.17500877 -0.44189790
vn -0.89274574 -8.7927781e-2 -0.44189790
vn -0.89706535 -6.6686123e-16 -0.44189790
vn -0.89274574 8.7927781e-2 -0.44189790
vn -0.87982849 0.17500877 -0.44189790
vn -0.85843802 0.26040433 -0.44189790
vn -0.82878032 0.34329205 -0.44189790
vn -0.79114101 0.42287368 -0.44189790
vn -0.74588258 0.49838281 -0.44189790
vn -0.69344089 0.56909223 -0.44189790
vn -0.63432099 0.63432099 -0.44189790
vn -0.56909223 0.69344089 -0.44189790
vn -0.49838281 0.74588258 -0.44189790
vn -0.42287368 0.79114101 -0.44189790
vn -0.34329205 0.82878032 -0.44189790
vn -0.26040433 0.85843802 -0.44189790
vn -0.17500877 0.87982849 -0.44189790
vn -8.7927781e-2 0.89274574 -0.44189790
vn -3.5617868e-15 0.89706535 -0.44189790
vn 8.7927781e-2 0.89274574 -0.44189790
vn 0.17500877 0.87982849 -0.44189790
vn 0.26040433 0.85843802 -0.44189790
vn 0.34329205 0.82878032 -0.44189790
vn 0.42287368 0.79114101 -0.44189790
vn 0.49838281 0.74588258 -0.44189790
vn 0.56909223 0.69344089 -0.44189790
vn 0.63432099 0.63432099 -0.44189790
vn 0.69344089 0.56909223 -0.44189790
vn 0.74588258 0.49838281 -0.44189790
vn 0.79114101 0.42287368 -0.44189790
vn 0.82878032 0.34329205 -0.44189790
vn 0.85843802 0.26040433 -0.44189790
vn 0.87982849 0.17500877 -0.44189790
vn 0.89274574 8.7927781e-2 -0.44189790
g Cylinder2_default
usemtl default
s 1
f 1/193/1 64/192/64 63/189/63 62/187/62 61/185/61 60/183/60 59/181/59 58/179/58 57/177/57 56/175/56 55/173/55 54/171/54 53/169/53 52/167/52 51/165/51 50/163/50 49/161/49 48/159/48 47/157/47 46/155/46 45/153/45 44/151/44 43/149/43 42/147/42 41/145/41 40/143/40 39/141/39 38/139/38 37/137/37 36/135/36 35/133/35 34/131/34 33/129/33 32/132/32 31/134/31 30/136/30 29/138/29 28/140/28 27/142/27 26/144/26 25/146/25 24/148/24 23/150/23 22/152/22 21/154/21 20/156/20 19/158/19 18/160/18 17/162/17 16/164/16 15/166/15 14/168/14 13/170/13 12/172/12 11/174/11 10/176/10 9/178/9 8/180/8 7/182/7 6/184/6 5/186/5 4/188/4 3/190/3 2/191/2
f 1/218/1 65/25/65 128/27/128 64/220/64
f 2/216/2 66/23/66 65/25/65 1/218/1
f 3/214/3 67/21/67 66/23/66 2/216/2
f 4/212/4 68/19/68 67/21/67 3/214/3
f 5/210/5 69/17/69 68/19/68 4/212/4
f 6/208/6 70/15/70 69/17/69 5/210/5
f 7/206/7 71/13/71 70/15/70 6/208/6
f 8/204/8 72/11/72 71/13/71 7/206/7
f 9/202/9 73/9/73 72/11/72 8/204/8
f 10/200/10 74/7/74 73/9/73 9/202/9
f 11/198/11 75/5/75 74/7/74 10/200/10
f 12/196/12 76/3/76 75/5/75 11/198/11
f 13/194/13 77/1/77 76/3/76 12/196/12
f 14/195/14 78/2/78 77/1/77 13/194/13
f 15/197/15 79/4/79 78/2/78 14/195/14
f 16/199/16 80/6/80 79/4/79 15/197/15
f 17/201/17 81/8/81 80/6/80 16/199/16
f 18/203/18 82/10/82 81/8/81 17/201/17
f 19/205/19 83/12/83 82/10/82 18/203/18
f 20/207/20 84/14/84 83/12/83 19/205/19
f 21/209/21 85/16/85 84/14/84 20/207/20
f 22/211/22 86/18/86 85/16/85 21/209/21
f 23/213/23 87/20/87 86/18/86 22/211/22
f 24/215/24 88/22/88 87/20/87 23/213/23
f 25/217/25 89/24/89 88/22/88 24/215/24
f 26/219/26 90/26/90 89/24/89 25/217/25
f 27/221/27 91/28/91 90/26/90 26/219/26
f 28/223/28 92/30/92 91/28/91 27/221/27
f 29/225/29 93/32/93 92/30/92 28/223/28
f 30/227/30 94/34/94 93/32/93 29/225/29
f 31/229/31 95/36/95 94/34/94 30/227/30
f 32/231/32 96/38/96 95/36/95 31/229/31
f 33/233/33 97/40/97 96/38/96 32/231/32
f 34/235/34 98/42/98 97/40/97 33/233/33
f 35/237/35 99/44/99 98/42/98 34/235/34
f 36/239/36 100/46/100 99/44/99 35/237/35
f 37/241/37 101/48/101 100/46/100 36/239/36
f 38/243/38 102/50/102 101/48/101 37/241/37
f 39/245/39 103/52/103 102/50/102 38/243/38
f 40/247/40 104/54/104 103/52/103 39/245/39
f 41/248/41 105/55/105 104/54/104 40/247/40
f 42/249/42 106/56/106 105/55/105 41/248/41
f 43/250/43 107/57/107 106/56/106 42/249/42
f 44/251/44 108/58/108 107/57/107 43/250/43
f 45/252/45 109/59/109 108/58/108 44/251/44
f 46/253/46 110/60/110 109/59/109 45/252/45
f 47/254/47 111/61/111 110/60/110 46/253/46
f 48/255/48 112/62/112 111/61/111 47/254/47
f 49/256/49 113/63/113 112/62/112 48/255/48
f 50/257/50 114/64/114 113/63/113 49/256/49
f 51/258/51 115/65/115 114/64/114 50/257/50
f 52/244/52 116/51/116 115/53/115 51/246/51
f 53/242/53 117/49/117 116/51/116 52/244/52
f 54/240/54 118/47/118 117/49/117 53/242/53
f 55/238/55 119/45/119 118/47/118 54/240/54
f 56/236/56 120/43/120 119/45/119 55/238/55
f 57/234/57 121/41/121 120/43/120 56/236/56
f 58/232/58 122/39/122 121/41/121 57/234/57
f 59/230/59 123/37/123 122/39/122 58/232/58
f 60/228/60 124/35/124 123/37/123 59/230/59
f 61/226/61 125/33/125 124/35/124 60/228/60
f 62/224/62 126/31/126 125/33/125 61/226/61
f 63/222/63 127/29/127 126/31/126 62/224/62
f 64/220/64 128/27/128 127/29/127 63/222/63
f 66/68/66 67/70/67 68/72/68 69/74/69 70/76/70 71/78/71 72/80/72 73/82/73 74/84/74 75/86/75 76/88/76 77/90/77 78/92/78 79/94/79 80/96/80 81/98/81 82/100/82 83/102/83 84/104/84 85/106/85 86/108/86 87/110/87 88/112/88 89/114/89 90/116/90 91/118/91 92/120/92 93/122/93 94/124/94 95/126/95 96/128/96 97/130/97 98/127/98 99/125/99 100/123/100 101/121/101 102/119/102 103/117/103 104/115/104 105/113/105 106/111/106 107/109/107 108/107/108 109/105/109 110/103/110 111/101/111 112/99/112 113/97/113 114/95/114 115/93/115 116/91/116 117/89/117 118/87/118 119/85/119 120/83/120 121/81/121 122/79/122 123/77/123 124/75/124 125/73/125 126/71/126 127/69/127 128/67/128 65/66/65
